<?xml version="1.0" standalone="no"?>
<!DOCTYPE svg PUBLIC "-//W3C//DTD SVG 20010904//EN"
 "http://www.w3.org/TR/2001/REC-SVG-20010904/DTD/svg10.dtd">
<svg version="1.0" xmlns="http://www.w3.org/2000/svg"
 width="3194.000000pt" height="3047.000000pt" viewBox="0 0 3194.000000 3047.000000"
 preserveAspectRatio="xMidYMid meet">

<g transform="translate(0.000000,3047.000000) scale(0.100000,-0.100000)"
fill="#000000" stroke="none">
<path d="M13646 29560 l-1558 -900 -1451 -2 -1450 -3 -761 -1274 -762 -1275
-1360 -785 c-748 -432 -1370 -793 -1382 -801 l-21 -15 -21 -1525 c-11 -839
-24 -1541 -28 -1560 -5 -19 -349 -606 -766 -1304 -681 -1140 -757 -1271 -747
-1292 5 -13 327 -553 714 -1201 387 -648 709 -1188 716 -1201 9 -17 6 -411
-15 -1778 -15 -988 -23 -1759 -18 -1764 5 -4 729 -409 1609 -899 880 -490
1609 -902 1620 -914 11 -13 290 -476 620 -1030 l600 -1006 1223 -1 c1197 0
1224 0 1261 -20 22 -11 753 -418 1626 -905 l1587 -885 1562 903 1561 902 1453
5 1453 5 750 1255 c412 690 757 1265 767 1277 9 12 631 376 1382 808 751 433
1369 791 1374 796 6 5 19 642 33 1560 l23 1550 765 1281 765 1281 -725 1214
-726 1215 1 237 c0 130 12 922 24 1761 13 839 21 1528 17 1532 -3 4 -726 408
-1606 899 -880 490 -1609 901 -1621 913 -11 11 -293 477 -625 1034 l-604 1012
-1228 0 -1228 0 -1614 900 c-888 495 -1618 900 -1622 900 -4 0 -709 -405
-1567 -900z m2504 -377 l928 -518 -914 -3 c-503 -1 -1325 -1 -1828 0 l-914 3
897 517 c493 285 898 518 899 518 2 0 422 -233 932 -517z m-4667 -869 c-43
-30 -3218 -1861 -3222 -1858 -2 2 248 424 555 939 l559 935 1065 -1 c952 0
1063 -2 1043 -15z m8476 -1255 l2280 -1272 1208 -2021 1208 -2021 3 -80 c1
-44 -17 -1381 -42 -2971 l-44 -2891 -1012 -1695 c-557 -932 -1020 -1700 -1029
-1705 -9 -6 -1199 -694 -2646 -1529 l-2630 -1519 -2420 0 -2420 0 -2279 1271
-2280 1271 -1210 2024 -1210 2024 2 165 c1 91 20 1423 42 2960 33 2270 43
2801 54 2825 11 23 1978 3318 2014 3371 5 9 5133 2975 5267 3047 27 15 242 16
2447 17 l2417 0 2280 -1271z m1176 575 c229 -383 415 -697 413 -698 -2 -2
-2179 1210 -2478 1379 -22 12 84 14 812 15 l837 0 416 -696z m2626 -2695 c514
-287 936 -522 937 -524 5 -5 -27 -2037 -31 -2042 -2 -2 -417 689 -922 1534
-1021 1711 -927 1553 -923 1553 2 0 425 -234 939 -521z m-16819 -41 c-11 -18
-241 -404 -512 -858 -750 -1256 -892 -1492 -895 -1488 -1 2 2 356 9 786 10
672 14 785 26 792 187 111 1377 798 1383 799 5 1 0 -14 -11 -31z m-2127 -6162
c-14 -930 -27 -1691 -28 -1693 -6 -5 -1079 1797 -1075 1805 2 5 255 430 563
946 l560 937 3 -153 c1 -84 -9 -913 -23 -1842z m21435 337 l138 -231 -566
-946 c-310 -521 -566 -945 -568 -943 -5 5 47 3659 53 3677 3 12 332 -531 943
-1557z m-19900 -5294 c503 -842 919 -1538 924 -1547 6 -10 -8 -6 -40 12 -27
15 -452 252 -945 527 l-896 500 3 177 c7 316 24 1512 24 1690 0 94 3 172 8
172 4 0 419 -689 922 -1531z m18206 904 c-3 -247 -9 -600 -13 -785 l-6 -338
-694 -401 c-382 -220 -697 -399 -699 -397 -4 5 1406 2368 1414 2368 3 0 2
-201 -2 -447z m-2723 -3466 c-4 -8 -257 -431 -562 -940 l-554 -927 -1065 0
c-732 0 -1063 3 -1056 10 14 14 3227 1869 3237 1870 4 0 4 -6 0 -13z m-12037
-1159 c684 -381 1243 -696 1244 -701 0 -4 -374 -6 -832 -5 l-832 3 -418 698
c-229 383 -414 697 -411 697 3 0 565 -312 1249 -692z m6859 -1047 c-91 -58
-1772 -1024 -1780 -1024 -9 1 -1852 1027 -1863 1038 -3 3 822 5 1834 5 1808 0
1838 -1 1809 -19z"/>
<path d="M9762 24807 c-188 -188 -342 -345 -342 -348 0 -7 2737 -4800 2746
-4808 6 -6 2065 2052 2062 2060 -2 5 -4035 3368 -4109 3426 -13 10 -69 -41
-357 -330z"/>
<path d="M17670 23435 c-1130 -943 -2056 -1717 -2057 -1722 -2 -4 460 -471
1026 -1037 1021 -1021 1029 -1029 1044 -1005 8 13 628 1097 1377 2408 l1362
2384 -344 344 c-188 188 -345 343 -348 342 -3 0 -930 -772 -2060 -1714z"/>
<path d="M9421 23067 c-1 -28 680 -5471 685 -5477 3 -2 314 305 692 683 l687
687 -1032 2062 c-568 1135 -1032 2055 -1032 2045z"/>
<path d="M19385 21019 l-1030 -2059 687 -687 c443 -443 689 -682 692 -673 6
19 686 5473 683 5476 -1 2 -466 -924 -1032 -2057z"/>
<path d="M12163 18958 l-2063 -2063 0 -1027 0 -1028 1221 -1527 c672 -841
1226 -1534 1232 -1541 8 -10 5 -14 -11 -19 -12 -3 -22 -8 -22 -12 0 -3 73 -78
161 -166 l162 -160 -123 155 c-68 85 -129 162 -137 171 -13 15 29 31 471 179
267 89 486 166 486 171 0 5 -308 780 -685 1721 l-685 1713 337 337 c186 186
341 338 345 338 3 0 315 -927 693 -2060 l687 -2060 686 2 687 3 681 2040 c375
1122 684 2049 688 2060 5 17 64 -38 346 -320 187 -187 340 -344 340 -350 0 -6
-308 -780 -684 -1720 l-684 -1710 478 -160 c263 -88 482 -163 485 -167 4 -3
-57 -87 -135 -185 l-143 -178 172 170 c94 93 171 173 171 177 0 5 -6 8 -14 8
-8 0 -17 4 -21 10 -3 5 546 698 1220 1541 l1225 1531 0 1037 0 1036 -2060
2060 c-1132 1132 -2061 2057 -2063 2055 -3 -3 -156 -1980 -341 -4395 -185
-2414 -340 -4408 -344 -4430 -4 -25 -127 1521 -345 4375 -186 2428 -342 4423
-345 4433 -6 13 -452 -428 -2069 -2045z"/>
<path d="M20960 6234 c-439 -41 -820 -147 -1180 -330 -158 -80 -294 -164 -283
-174 4 -4 86 -49 181 -100 l172 -92 0 -614 0 -614 -22 4 c-13 3 -102 7 -198
11 l-175 5 -69 -150 c-38 -83 -66 -153 -63 -156 3 -4 65 -1 138 5 72 6 190 11
260 11 l129 0 0 -79 0 -78 -31 -7 c-17 -3 -61 -6 -98 -6 -65 0 -333 -20 -339
-25 -3 -3 18 -85 24 -93 1 -2 62 3 136 12 73 8 172 17 221 20 l87 6 0 -707 -1
-708 -220 -185 -219 -185 1227 -3 c1243 -3 1320 -1 1493 34 381 78 695 312
822 615 57 136 72 226 72 419 -1 155 -4 186 -26 271 -82 306 -265 539 -552
703 l-78 44 107 51 c414 198 615 505 615 941 0 220 -54 405 -169 580 -60 92
-272 303 -288 287 -3 -3 25 -39 61 -79 83 -91 155 -195 206 -295 135 -271 141
-627 15 -900 -114 -247 -329 -430 -603 -513 -78 -24 -87 -23 -229 21 -57 18
-42 41 43 68 105 33 277 120 354 179 224 169 333 393 333 682 0 202 -46 364
-144 513 -200 305 -575 517 -1049 592 -102 16 -549 29 -660 19z m514 -284
c276 -61 495 -239 593 -480 42 -104 56 -208 50 -365 -6 -156 -21 -224 -73
-330 -147 -302 -479 -442 -1091 -462 l-193 -6 0 630 0 629 73 42 c341 193 799
101 1032 -210 44 -58 119 -117 132 -104 3 3 -16 44 -43 91 -164 286 -367 395
-734 395 -162 0 -345 -40 -505 -111 l-45 -20 0 -669 0 -670 -80 0 -80 0 0 738
0 739 108 51 c155 73 313 118 477 136 81 8 292 -5 379 -24z m-194 -1921 c595
-53 842 -203 936 -567 35 -132 44 -364 20 -501 -63 -360 -272 -570 -653 -656
-114 -26 -266 -38 -625 -50 l-198 -7 0 760 0 759 178 7 c273 10 582 -17 742
-66 80 -25 190 -79 252 -125 26 -19 83 -72 126 -119 44 -46 87 -84 96 -84 9 0
16 2 16 4 0 13 -75 128 -113 175 -132 158 -293 235 -580 277 -132 19 -522 30
-689 19 l-118 -7 0 -799 0 -799 -80 0 -80 0 0 895 0 894 88 4 c134 7 554 -2
682 -14z"/>
<path d="M29320 6234 c-439 -41 -820 -147 -1180 -330 -158 -80 -294 -164 -283
-174 4 -4 86 -49 181 -100 l172 -92 0 -614 0 -614 -22 4 c-13 3 -102 7 -198
11 l-175 5 -69 -150 c-38 -83 -66 -153 -63 -156 3 -4 65 -1 138 5 72 6 190 11
260 11 l129 0 0 -79 0 -78 -31 -7 c-17 -3 -61 -6 -98 -6 -65 0 -333 -20 -339
-25 -3 -3 18 -85 24 -93 1 -2 62 3 136 12 73 8 172 17 221 20 l87 6 0 -707 -1
-708 -220 -185 -219 -185 1227 -3 c1243 -3 1320 -1 1493 34 381 78 695 312
822 615 57 136 72 226 72 419 -1 155 -4 186 -26 271 -82 306 -265 539 -552
703 l-78 44 107 51 c414 198 615 505 615 941 0 220 -54 405 -169 580 -60 92
-272 303 -288 287 -3 -3 25 -39 61 -79 83 -91 155 -195 206 -295 135 -271 141
-627 15 -900 -114 -247 -329 -430 -603 -513 -78 -24 -87 -23 -229 21 -57 18
-42 41 43 68 105 33 277 120 354 179 224 169 333 393 333 682 0 202 -46 364
-144 513 -200 305 -575 517 -1049 592 -102 16 -549 29 -660 19z m514 -284
c276 -61 495 -239 593 -480 42 -104 56 -208 50 -365 -6 -156 -21 -224 -73
-330 -147 -302 -479 -442 -1091 -462 l-193 -6 0 630 0 629 73 42 c341 193 799
101 1032 -210 44 -58 119 -117 132 -104 3 3 -16 44 -43 91 -164 286 -367 395
-734 395 -162 0 -345 -40 -505 -111 l-45 -20 0 -669 0 -670 -80 0 -80 0 0 738
0 739 108 51 c155 73 313 118 477 136 81 8 292 -5 379 -24z m-194 -1921 c595
-53 842 -203 936 -567 35 -132 44 -364 20 -501 -63 -360 -272 -570 -653 -656
-114 -26 -266 -38 -625 -50 l-198 -7 0 760 0 759 178 7 c273 10 582 -17 742
-66 80 -25 190 -79 252 -125 26 -19 83 -72 126 -119 44 -46 87 -84 96 -84 9 0
16 2 16 4 0 13 -75 128 -113 175 -132 158 -293 235 -580 277 -132 19 -522 30
-689 19 l-118 -7 0 -799 0 -799 -80 0 -80 0 0 895 0 894 88 4 c134 7 554 -2
682 -14z"/>
<path d="M260 6177 c0 -2 94 -93 210 -202 l210 -198 0 -1446 c0 -989 -4 -1474
-11 -1536 -15 -120 -51 -259 -84 -326 -74 -146 -227 -282 -473 -420 l-87 -49
726 0 726 0 54 -87 c30 -48 55 -91 57 -95 2 -4 -355 -9 -792 -10 l-796 -3 27
-37 26 -38 854 0 c824 0 854 1 841 18 -31 43 -304 383 -359 447 -33 38 -78
106 -100 150 -74 148 -72 117 -75 1250 l-3 1010 25 -70 c13 -38 212 -623 442
-1300 l419 -1230 117 0 117 0 599 1654 c330 910 602 1656 605 1659 3 3 5 -101
5 -231 l0 -236 -544 -1518 -544 -1518 -141 -3 c-78 -1 -141 -6 -141 -11 0 -4
5 -22 11 -40 l11 -31 158 0 c141 0 159 2 165 18 3 9 232 636 507 1392 275 756
504 1382 509 1390 5 8 9 -460 9 -1067 l0 -1083 -225 -187 -225 -188 369 -3
c203 -1 539 -1 747 0 l377 3 -197 184 -196 184 0 1677 0 1678 221 226 221 226
-827 0 -827 0 80 -87 c44 -49 133 -144 196 -213 85 -91 116 -131 113 -145 -2
-11 -187 -526 -411 -1145 -223 -619 -409 -1131 -411 -1139 -3 -8 -7 -12 -10
-9 -2 2 -167 481 -365 1064 -199 582 -372 1089 -385 1125 l-23 66 204 144 205
144 -33 28 c-18 15 -38 25 -44 23 -29 -11 -419 -309 -418 -319 1 -7 187 -549
413 -1205 226 -656 411 -1199 411 -1205 0 -17 -103 -267 -110 -267 -5 0 -97
272 -660 1942 l-259 768 222 202 c122 111 229 207 237 215 12 11 -125 13 -828
13 -463 0 -842 -2 -842 -3z m860 -2412 c0 -716 4 -1143 10 -1185 29 -181 87
-290 228 -428 57 -56 102 -105 100 -108 -9 -8 -98 26 -183 69 -97 50 -190 138
-228 217 -29 60 -58 166 -78 282 -10 56 -14 393 -16 1418 l-2 1345 84 -245 85
-244 0 -1121z"/>
<path d="M6666 6148 c16 -18 86 -94 154 -168 69 -74 133 -144 143 -156 17 -20
11 -38 -194 -605 -116 -321 -215 -594 -220 -607 -9 -23 -12 -21 -97 51 -48 41
-123 100 -166 131 l-79 57 -25 -37 -25 -37 30 -26 c16 -14 91 -78 166 -141 75
-63 136 -120 137 -126 0 -13 -40 -115 -50 -127 -9 -11 -112 73 -258 210 -68
63 -124 114 -126 112 -1 -2 -13 -33 -25 -69 -33 -94 -130 -291 -194 -395 l-55
-90 92 -16 c163 -29 285 -75 373 -142 l32 -24 -78 -234 c-221 -658 -418 -1039
-676 -1307 -145 -151 -298 -270 -468 -362 l-72 -40 819 0 819 0 -79 83 c-155
161 -236 274 -275 387 -20 57 -23 83 -23 220 1 140 4 166 32 273 38 143 238
758 255 781 11 14 20 8 81 -53 l69 -69 -38 -94 c-190 -473 -262 -819 -221
-1058 29 -166 97 -290 290 -535 l95 -120 -824 -5 -824 -5 32 -38 32 -38 878 3
878 3 -113 145 c-311 397 -358 497 -358 765 0 129 17 243 61 400 31 113 107
323 156 434 l29 64 65 -84 c106 -135 295 -404 377 -536 43 -68 79 -122 82
-122 3 0 42 58 88 128 128 196 335 431 500 569 l52 44 30 -68 c36 -80 50 -53
-119 -236 -62 -68 -158 -178 -212 -245 -110 -137 -243 -330 -231 -336 4 -3 21
-8 38 -11 30 -7 33 -4 107 106 96 144 196 268 349 437 89 98 123 129 129 119
4 -8 87 -220 183 -472 l175 -458 -27 -23 c-15 -12 -116 -97 -225 -189 l-198
-166 823 0 c696 0 820 2 808 14 -8 7 -116 91 -240 186 -124 95 -226 174 -228
175 -5 4 -581 1566 -584 1583 -4 24 87 66 187 88 55 12 129 17 235 18 l155 1
-66 130 c-71 141 -116 257 -155 400 -14 50 -28 98 -32 108 -6 15 -29 -1 -142
-97 -91 -77 -137 -110 -142 -102 -7 13 -437 1159 -445 1188 -4 12 47 78 156
205 88 103 161 191 161 195 0 6 -65 32 -81 33 -3 0 -83 -89 -177 -198 l-171
-199 29 -76 c15 -42 123 -331 239 -641 116 -311 208 -568 204 -572 -5 -5 -33
-21 -63 -38 l-54 -30 -267 712 -267 711 141 160 c77 89 154 176 171 194 l30
32 -754 0 -754 0 30 -32z m570 -776 l41 -117 -208 -550 -207 -550 116 -120
c127 -130 259 -290 353 -428 l60 -87 -55 -65 -55 -65 -54 72 c-30 40 -92 125
-139 188 -108 147 -213 273 -326 392 l-90 94 256 677 c140 372 258 677 261
677 3 0 24 -53 47 -118z m328 -862 l214 -575 -132 -135 c-73 -74 -146 -153
-164 -174 -17 -22 -33 -38 -35 -35 -2 2 -30 42 -62 89 -98 142 -174 239 -293
374 -62 70 -111 133 -109 140 2 6 82 217 178 470 126 334 175 453 181 440 5
-11 104 -278 222 -594z"/>
<path d="M10470 5978 l220 -202 0 -731 0 -732 -67 -18 c-223 -60 -405 -219
-522 -453 -40 -79 -41 -85 -24 -98 27 -21 38 -17 74 24 115 131 275 209 467
228 l72 7 0 -62 c0 -60 0 -61 -28 -61 -55 0 -183 -40 -262 -81 -84 -43 -216
-157 -208 -180 2 -7 17 -17 32 -22 25 -8 33 -4 89 51 93 88 187 132 320 147
l57 6 0 -708 0 -709 -221 -192 -220 -192 750 0 c413 0 751 2 751 4 0 2 -92 82
-205 176 l-205 172 0 805 0 805 53 -6 c28 -3 142 -13 252 -22 295 -24 890 -13
1093 21 l32 6 0 -59 0 -59 -72 -21 c-202 -59 -496 -71 -937 -38 -118 9 -222
16 -233 16 -17 0 -18 -27 -18 -745 l0 -745 69 -77 c37 -43 137 -154 220 -248
l152 -170 -792 -5 -792 -5 42 -37 41 -38 846 0 845 0 -89 103 c-49 56 -171
196 -271 312 l-181 210 0 684 0 684 58 -6 c412 -43 795 -33 1080 28 l32 8 -1
-689 0 -689 -218 -185 -219 -185 375 -3 c206 -1 542 -1 746 0 l371 3 -191 170
-192 170 0 1702 -1 1701 223 216 222 216 -755 -1 -755 0 42 -37 c22 -20 111
-102 197 -181 l156 -145 0 -752 0 -752 -32 -5 c-18 -3 -146 -11 -285 -18 -240
-12 -595 -4 -795 18 l-58 6 0 676 0 676 170 170 c163 162 169 170 152 188 -45
50 -42 52 -233 -139 l-179 -179 0 -692 0 -693 -39 0 c-21 0 -59 3 -85 6 l-46
7 0 706 0 706 223 217 222 217 -768 0 -768 1 221 -202z"/>
<path d="M15896 6148 c16 -18 86 -94 154 -168 69 -74 133 -144 143 -156 17
-20 11 -38 -194 -605 -116 -321 -215 -594 -220 -607 -9 -23 -12 -21 -97 51
-48 41 -123 100 -166 131 l-79 57 -25 -37 -25 -37 30 -26 c16 -14 91 -78 166
-141 75 -63 136 -120 137 -126 0 -13 -40 -115 -50 -127 -9 -11 -112 73 -258
210 -68 63 -124 114 -126 112 -1 -2 -13 -33 -25 -69 -33 -94 -130 -291 -194
-395 l-55 -90 92 -16 c163 -29 285 -75 373 -142 l32 -24 -78 -234 c-221 -658
-418 -1039 -676 -1307 -145 -151 -298 -270 -468 -362 l-72 -40 819 0 819 0
-79 83 c-155 161 -236 274 -275 387 -20 57 -23 83 -23 220 1 140 4 166 32 273
38 143 238 758 255 781 11 14 20 8 81 -53 l69 -69 -38 -94 c-190 -473 -262
-819 -221 -1058 29 -166 97 -290 290 -535 l95 -120 -824 -5 -824 -5 32 -38 32
-38 878 3 878 3 -113 145 c-311 397 -358 497 -358 765 0 129 17 243 61 400 31
113 107 323 156 434 l29 64 65 -84 c106 -135 295 -404 377 -536 43 -68 79
-122 82 -122 3 0 42 58 88 128 128 196 335 431 500 569 l52 44 30 -68 c36 -80
50 -53 -119 -236 -62 -68 -158 -178 -212 -245 -110 -137 -243 -330 -231 -336
4 -3 21 -8 38 -11 30 -7 33 -4 107 106 96 144 196 268 349 437 89 98 123 129
129 119 4 -8 87 -220 183 -472 l175 -458 -27 -23 c-15 -12 -116 -97 -225 -189
l-198 -166 823 0 c696 0 820 2 808 14 -8 7 -116 91 -240 186 -124 95 -226 174
-228 175 -5 4 -581 1566 -584 1583 -4 24 87 66 187 88 55 12 129 17 235 18
l155 1 -66 130 c-71 141 -116 257 -155 400 -14 50 -28 98 -32 108 -6 15 -29
-1 -142 -97 -91 -77 -137 -110 -142 -102 -7 13 -437 1159 -445 1188 -4 12 47
78 156 205 88 103 161 191 161 195 0 6 -65 32 -81 33 -3 0 -83 -89 -177 -198
l-171 -199 29 -76 c15 -42 123 -331 239 -641 116 -311 208 -568 204 -572 -5
-5 -33 -21 -63 -38 l-54 -30 -267 712 -267 711 141 160 c77 89 154 176 171
194 l30 32 -754 0 -754 0 30 -32z m570 -776 l41 -117 -208 -550 -207 -550 116
-120 c127 -130 259 -290 353 -428 l60 -87 -55 -65 -55 -65 -54 72 c-30 40 -92
125 -139 188 -108 147 -213 273 -326 392 l-90 94 256 677 c140 372 258 677
261 677 3 0 24 -53 47 -118z m328 -862 l214 -575 -132 -135 c-73 -74 -146
-153 -164 -174 -17 -22 -33 -38 -35 -35 -2 2 -30 42 -62 89 -98 142 -174 239
-293 374 -62 70 -111 133 -109 140 2 6 82 217 178 470 126 334 175 453 181
440 5 -11 104 -278 222 -594z"/>
<path d="M23724 6148 c20 -18 119 -107 220 -198 l184 -165 4 -1270 c4 -1101 7
-1287 22 -1400 51 -408 134 -637 287 -799 256 -271 643 -388 1227 -373 295 7
490 45 678 132 106 48 181 103 267 195 122 129 188 282 221 514 31 207 36 463
36 1692 l0 1233 290 233 289 233 -344 3 c-190 1 -501 1 -691 0 l-346 -3 251
-230 251 -230 -6 -1105 c-7 -1391 -16 -1607 -80 -1860 -37 -146 -81 -230 -167
-315 -155 -155 -405 -227 -727 -210 -534 28 -749 227 -789 736 -7 85 -11 607
-11 1459 l0 1326 219 217 219 217 -771 0 -770 0 37 -32z"/>
<path d="M13782 5887 l-182 -183 0 -1700 0 -1699 220 -247 220 -248 -792 0
-793 0 40 -40 40 -40 846 2 845 3 -268 303 -268 303 0 1666 0 1667 165 159
c91 87 165 162 165 165 0 4 -13 22 -28 40 l-27 33 -183 -184z"/>
<path d="M25132 5892 l-183 -177 4 -1375 c3 -1243 5 -1383 20 -1460 24 -119
54 -214 89 -285 44 -87 170 -208 274 -263 45 -23 84 -42 88 -42 22 0 -7 37
-92 116 -53 50 -117 117 -141 148 -42 54 -47 68 -93 254 l-48 197 0 1340 0
1340 157 157 158 158 -19 35 c-11 19 -22 35 -25 34 -3 0 -88 -80 -189 -177z"/>
<path d="M27274 5831 l-239 -197 -6 -1250 c-6 -1253 -9 -1365 -45 -1634 -46
-346 -123 -522 -300 -691 -250 -236 -661 -345 -1177 -311 -367 25 -612 92
-866 237 -63 36 -116 63 -118 61 -9 -8 127 -112 213 -164 154 -91 364 -162
590 -198 137 -21 482 -30 625 -15 375 39 654 160 847 366 188 201 252 383 303
865 8 69 13 548 16 1396 l4 1290 220 183 c120 100 219 186 219 190 0 4 -10 21
-23 38 l-23 32 -240 -198z"/>
<path d="M4548 5848 l-188 -131 1 -1701 0 -1701 223 -250 223 -250 -784 -3
c-430 -1 -783 -5 -783 -8 0 -4 9 -22 21 -40 l21 -34 865 0 c795 0 864 1 852
16 -7 9 -134 152 -281 318 l-268 301 3 1649 2 1649 112 81 c61 45 142 103 179
130 l68 49 -32 28 c-18 16 -36 29 -40 28 -4 0 -91 -59 -194 -131z"/>
<path d="M9006 4603 c35 -146 146 -425 245 -612 33 -62 58 -115 56 -117 -2 -3
-60 1 -128 7 -122 11 -415 7 -472 -7 -23 -5 -28 -11 -23 -27 3 -11 132 -358
288 -770 l283 -750 290 -256 289 -256 -861 -5 -861 -5 32 -38 31 -37 942 2
941 3 -361 316 -362 316 -263 699 c-144 384 -265 710 -269 723 l-6 24 124 -7
c68 -4 216 -16 329 -25 113 -10 206 -17 208 -16 2 2 -31 66 -72 142 -122 227
-234 484 -266 610 -12 46 -19 56 -62 83 -27 16 -51 30 -54 30 -2 0 -1 -12 2
-27z"/>
<path d="M18236 4603 c35 -146 146 -425 245 -612 33 -62 58 -115 56 -117 -2
-3 -60 1 -128 7 -122 11 -415 7 -472 -7 -23 -5 -28 -11 -23 -27 3 -11 132
-358 288 -770 l283 -750 290 -256 289 -256 -861 -5 -861 -5 32 -38 31 -37 942
2 941 3 -361 316 -362 316 -263 699 c-144 384 -265 710 -269 723 l-6 24 124
-7 c68 -4 216 -16 329 -25 113 -10 206 -17 208 -16 2 2 -31 66 -72 142 -122
227 -234 484 -266 610 -12 46 -19 56 -62 83 -27 16 -51 30 -54 30 -2 0 -1 -12
2 -27z"/>
<path d="M22920 3795 c-10 -12 -6 -22 22 -57 99 -121 182 -281 225 -433 35
-123 44 -384 18 -536 -82 -491 -434 -824 -965 -913 -228 -38 -280 -39 -1493
-45 l-1197 -6 25 -37 26 -38 1192 0 c1291 0 1332 1 1554 55 120 29 261 82 353
132 300 164 518 459 591 803 32 150 32 400 0 550 -42 197 -120 348 -243 471
-71 71 -87 79 -108 54z"/>
<path d="M31280 3795 c-10 -12 -6 -22 22 -57 99 -121 182 -281 225 -433 35
-123 44 -384 18 -536 -82 -491 -434 -824 -965 -913 -228 -38 -280 -39 -1493
-45 l-1197 -6 25 -37 26 -38 1192 0 c1291 0 1332 1 1554 55 120 29 261 82 353
132 300 164 518 459 591 803 32 150 32 400 0 550 -42 197 -120 348 -243 471
-71 71 -87 79 -108 54z"/>
</g>
</svg>
